<svg width="100" height="100" viewBox="0 0 100 100" fill="none" xmlns="http://www.w3.org/2000/svg">
<g clip-path="url(#clip0_2_21)">
<path d="M85.3554 14.6446C75.9117 5.20096 63.3553 0 50 0C36.6447 0 24.0883 5.20096 14.6446 14.6446C5.20096 24.0883 0 36.6447 0 50C0 63.356 5.20096 75.9117 14.6446 85.3554C24.0883 94.799 36.6447 100 50 100C63.3553 100 75.9117 94.799 85.3554 85.3554C94.799 75.9117 100 63.356 100 50C100 36.6447 94.799 24.0883 85.3554 14.6446ZM71.6263 64.7202C73.5329 66.6275 73.5329 69.7189 71.6263 71.6255C70.6726 72.5792 69.4229 73.056 68.1732 73.056C66.9235 73.056 65.6738 72.5792 64.7202 71.6255L50 56.9054L35.2798 71.6263C34.3262 72.5792 33.0765 73.056 31.8268 73.056C30.5771 73.056 29.3274 72.5792 28.3737 71.6263C26.4671 69.7189 26.4671 66.6275 28.3737 64.7209L43.0946 50L28.3737 35.2798C26.4671 33.3725 26.4671 30.2811 28.3737 28.3745C30.2811 26.4671 33.3725 26.4671 35.2791 28.3745L50 43.0946L64.7202 28.3745C66.6275 26.4679 69.7189 26.4671 71.6255 28.3745C73.5329 30.2811 73.5329 33.3725 71.6255 35.2798L56.9054 50L71.6263 64.7202Z" fill="#570407"/>
</g>
<defs>
<clipPath id="clip0_2_21">
<rect width="100" height="100" fill="white"/>
</clipPath>
</defs>
</svg>
