<svg width="88" height="82" viewBox="0 0 88 82" fill="none" xmlns="http://www.w3.org/2000/svg">
<rect x="6" y="8" width="76" height="71" fill="white"/>
<path d="M20.8555 0.648438C19.4297 1.29297 19 2.26953 19 4.78906V6.625H13.7656C9.70312 6.625 8.27734 6.68359 7.37891 6.91797C4.01953 7.79688 1.42188 10.4141 0.542969 13.793C0.09375 15.4727 0.09375 72.7773 0.542969 74.457C1.42188 77.8359 4.01953 80.4531 7.37891 81.332C8.39453 81.5859 12.7891 81.625 44 81.625C75.2109 81.625 79.6055 81.5859 80.6211 81.332C83.9805 80.4531 86.5781 77.8359 87.457 74.457C87.9062 72.7773 87.9062 15.4727 87.457 13.793C86.5781 10.4141 83.9805 7.79688 80.6211 6.91797C79.7227 6.68359 78.2969 6.625 74.2539 6.625H69.0391L68.9609 4.49609C68.9023 2.19141 68.7266 1.74219 67.5547 0.882812C66.793 0.316406 64.957 0.316406 64.1953 0.882812C63.0234 1.74219 62.8477 2.19141 62.7891 4.49609L62.7109 6.625H44H25.2891L25.2109 4.49609C25.1523 2.19141 24.9766 1.74219 23.8438 0.902344C23.1797 0.414062 21.6367 0.277344 20.8555 0.648438ZM19.0391 15.0039C19.0977 17.3086 19.2734 17.7578 20.4453 18.6172C21.207 19.1836 23.043 19.1836 23.8047 18.6172C24.9766 17.7578 25.1523 17.3086 25.2109 15.0039L25.2891 12.875H44H62.7109L62.7891 15.0039C62.8477 17.3086 63.0234 17.7578 64.1953 18.6172C64.957 19.1836 66.793 19.1836 67.5547 18.6172C68.7266 17.7578 68.9023 17.3086 68.9609 15.0039L69.0391 12.8555L74.2734 12.9141C79.2148 12.9727 79.5469 12.9922 80.0547 13.3828C80.3477 13.5977 80.7773 14.0273 80.9922 14.3203C81.3828 14.8281 81.4023 15.1602 81.4609 20.1211L81.5195 25.375H44H6.5V20.4141C6.5 15.2578 6.57812 14.7109 7.33984 13.8711C8.17969 12.9531 8.60938 12.8945 13.9609 12.875H18.9609L19.0391 15.0039ZM81.4609 52.5039C81.4023 73.2656 81.4023 73.4023 80.9922 73.9297C80.7773 74.2227 80.3477 74.6523 80.0547 74.8672L79.5273 75.2773H44H8.47266L7.94531 74.8672C7.65234 74.6523 7.22266 74.2227 7.00781 73.9297C6.59766 73.4023 6.59766 73.2656 6.53906 52.5039L6.5 31.625H44H81.5L81.4609 52.5039Z" fill="#9C9C9C"/>
<path d="M33.6875 41.918C32.4766 42.5039 31.8125 44.1446 32.1836 45.6289C32.2617 45.9805 33.6289 47.5039 35.9531 49.8477L39.6055 53.5L36.0508 57.0742C34.1172 59.0274 32.418 60.8242 32.3008 61.0586C31.7344 62.1719 32.2422 64.1055 33.2969 64.8672C33.9414 65.3164 35.2891 65.5313 36.1289 65.3164C36.4805 65.2383 38.0039 63.8711 40.3476 61.5469L44 57.8946L47.5742 61.4492C49.5273 63.3828 51.3242 65.0821 51.5586 65.1992C52.8086 65.8438 54.8594 65.1407 55.5234 63.8516C55.9531 63.0117 56.0312 61.7227 55.6992 61.0586C55.582 60.8242 53.8828 59.0274 51.9492 57.0742L48.3945 53.5L52.0469 49.8477C54.3711 47.5039 55.7383 45.9805 55.8164 45.6289C56.0312 44.7891 55.8164 43.4414 55.3672 42.7969C54.6055 41.7422 52.6719 41.2344 51.5586 41.8008C51.3242 41.918 49.5273 43.6172 47.5742 45.5508L44 49.1055L40.4453 45.5508C38.4726 43.6172 36.6758 41.918 36.4414 41.8008C35.8359 41.4883 34.4297 41.5469 33.6875 41.918Z" fill="#9C9C9C"/>
</svg>
