<?xml version="1.0" standalone="no"?>
<!DOCTYPE svg PUBLIC "-//W3C//DTD SVG 20010904//EN"
 "http://www.w3.org/TR/2001/REC-SVG-20010904/DTD/svg10.dtd">
<svg version="1.0" xmlns="http://www.w3.org/2000/svg"
 width="512.000000pt" height="512.000000pt" viewBox="0 0 512.000000 512.000000"
 preserveAspectRatio="xMidYMid meet">

<g transform="translate(0.000000,512.000000) scale(0.100000,-0.100000)"
fill="#fff" stroke="none">
<path d="M1375 4626 c-73 -33 -95 -83 -95 -212 l0 -94 -268 0 c-208 0 -281 -3
-327 -15 -172 -45 -305 -179 -350 -352 -23 -86 -23 -3020 0 -3106 45 -173 178
-307 350 -352 52 -13 277 -15 1875 -15 1598 0 1823 2 1875 15 172 45 305 179
350 352 23 86 23 3020 0 3106 -45 173 -178 307 -350 352 -46 12 -119 15 -326
15 l-267 0 -4 109 c-3 118 -12 141 -72 185 -39 29 -133 29 -172 0 -60 -44 -69
-67 -72 -185 l-4 -109 -958 0 -958 0 -4 109 c-3 118 -12 141 -70 184 -34 25
-113 32 -153 13z m-93 -735 c3 -118 12 -141 72 -185 39 -29 133 -29 172 0 60
44 69 67 72 185 l4 109 958 0 958 0 4 -109 c3 -118 12 -141 72 -185 39 -29
133 -29 172 0 60 44 69 67 72 185 l4 110 268 -3 c253 -3 270 -4 296 -24 15
-11 37 -33 48 -48 20 -26 21 -43 24 -297 l3 -269 -1921 0 -1920 0 0 254 c0
264 4 292 43 335 43 47 65 50 339 51 l256 0 4 -109z m3196 -1920 c-3 -1063 -3
-1070 -24 -1097 -11 -15 -33 -37 -48 -48 l-27 -21 -1819 0 -1819 0 -27 21
c-15 11 -37 33 -48 48 -21 27 -21 34 -24 1097 l-2 1069 1920 0 1920 0 -2
-1069z"/>
<path d="M2032 2513 c-62 -30 -96 -114 -77 -190 4 -18 74 -96 193 -216 l187
-187 -182 -183 c-99 -100 -186 -192 -192 -204 -29 -57 -3 -156 51 -195 33 -23
102 -34 145 -23 18 4 96 74 216 193 l187 187 183 -182 c100 -99 192 -186 204
-192 64 -33 169 3 203 69 22 43 26 109 9 143 -6 12 -93 104 -192 204 l-182
183 187 187 c119 120 189 198 193 216 11 43 0 112 -23 145 -39 54 -138 80
-195 51 -12 -6 -104 -93 -204 -192 l-183 -182 -182 182 c-101 99 -193 186
-205 192 -31 16 -103 13 -141 -6z"/>
</g>
</svg>
