<svg width="98" height="94" viewBox="0 0 98 94" fill="none" xmlns="http://www.w3.org/2000/svg">
<path d="M68.94 66C69.6507 65.8978 70.355 65.1899 70.9082 64.7761C71.2884 64.4918 71.6591 64.2081 72.0316 63.9166C72.8282 63.2931 73.6803 62.723 74.4084 62.0106C76.831 59.6405 79.713 57.8498 82.1004 55.4473C82.5913 54.9533 83.11 54.4779 83.6741 54.0693C84.1015 53.7596 84.4246 53.2584 84.8114 52.8921C85.6156 52.1304 86.5681 51.4225 87.476 50.7899C87.9332 50.4715 87.4918 50.5208 87.1835 50.6218C86.5317 50.8353 85.8455 51.0772 85.271 51.4626C84.2431 52.1522 83.3844 53.273 82.625 54.2468C81.9011 55.175 80.9624 55.8731 80.1368 56.7039C79.3695 57.4761 78.7145 58.3501 77.9457 59.1237C77.3709 59.7022 76.6614 60.1578 76.1446 60.7867C76.1011 60.8397 75.5539 61.6036 75.5597 61.6089C75.6563 61.6964 76.1818 61.6571 76.3349 61.6229C77.262 61.4156 77.8768 60.7837 78.591 60.1981C80.0198 59.0265 81.3925 57.8042 82.7271 56.5358C83.4301 55.8676 84.168 55.2503 84.8625 54.5644C85.1393 54.291 85.393 54.0293 85.5681 53.6769C85.8505 53.1085 86.4672 52.9269 86.9793 52.537C87.5834 52.0772 88.0036 51.4857 88.5298 50.9488C89.168 50.2974 89.7871 49.6488 90.2938 48.884C91.4978 47.0666 92.0661 44.8377 93.4133 43.1055C93.9028 42.4761 94.4103 41.9065 94.7966 41.1996C94.9046 41.002 95.0345 40.6365 94.9916 40.4101C94.9329 40.0997 93.2157 40.1137 92.9955 40.1065C92.5996 40.0934 92.1846 40.0823 91.7885 40.1065C90.8596 40.1631 89.81 40.9046 89.0543 41.3818C87.4041 42.4237 85.636 43.4747 84.2172 44.8293C83.8763 45.1547 82.8536 45.7836 84.0269 45.203C85.9446 44.2539 87.6849 42.8699 89.3746 41.5686C90.0591 41.0415 91.1474 40.8546 91.9649 40.625C92.0615 40.5979 91.7648 40.646 91.6678 40.6717C90.9537 40.8608 90.2841 41.2672 89.7181 41.7368C89.0404 42.2991 88.402 42.9752 87.9309 43.7221C87.7497 44.0095 87.0583 44.9875 87.2114 45.3898C87.4691 46.067 92.1105 43.7443 92.5313 43.2503C92.7855 42.9518 91.7627 43.4053 91.394 43.5353C90.2077 43.9536 89.0312 44.4005 87.852 44.8386C87.7673 44.8701 86.3624 45.561 87.0953 45.1049C88.3138 44.3466 89.4734 43.4379 90.6002 42.5496C90.8484 42.3539 91.1967 42.2061 91.2965 41.905C91.4106 41.5604 90.585 42.0578 90.2566 42.2086C88.6775 42.9341 87.1488 43.7636 85.647 44.6377C84.8289 45.1139 85.026 44.9064 85.5402 44.3154C86.8064 42.8602 88.1011 41.4303 89.3468 39.957C89.4894 39.7884 92.0458 37 90.6326 37C88.8636 37 88.0755 38.3509 87.5363 39.9009C87.5092 39.9791 88.0773 39.0182 87.8288 38.8872C87.6092 38.7715 86.8957 38.8791 87.1 38.7378C87.4213 38.5154 88.0723 38.481 88.4416 38.3781C89.0421 38.2106 89.8975 37.8145 90.5444 37.9716C91.0845 38.1028 91.5011 38.2519 92.0671 38.2519C92.1958 38.2519 93.0076 38.2115 92.6613 38.2706C92.4146 38.3127 91.223 38.7419 91.5193 39.2236C91.686 39.4945 92.5243 39.4153 92.4477 38.9526C92.2617 37.8293 90.3793 37.9256 89.551 37.9156C88.7351 37.9057 88.7699 38.5663 89.6067 38.7564C90.664 38.9967 91.7821 39.0926 92.8562 39.2423C93.191 39.2889 93.6295 39.2466 93.9193 39.0461C94.5851 38.5855 93.31 37.9075 92.9862 37.8035C92.2998 37.583 91.4323 37.5255 90.7255 37.5512C89.7962 37.585 88.8532 37.9116 88.0702 38.4061C87.331 38.873 86.8052 39.5148 86.218 40.1485C85.5743 40.8432 84.9425 41.5247 84.3704 42.2833C83.7739 43.0743 83.2876 43.9488 82.6621 44.7171C81.953 45.5883 81.0339 46.2493 80.1368 46.908C79.2799 47.5373 78.4454 48.2101 77.5743 48.8186C76.7722 49.379 77.9605 47.9866 77.9921 47.9497C79.1506 46.5988 80.51 45.4385 81.9147 44.3574C82.1894 44.1461 81.2538 44.5709 80.9445 44.7265C78.3945 46.0095 75.9922 47.5343 73.675 49.2017C71.8852 50.4895 70.1696 52.0673 68.81 53.8264C68.5101 54.2144 68.3137 54.6827 68.0023 55.0689C67.8502 55.2576 67.4421 55.6646 67.928 55.6575C69.0115 55.6417 70.0884 55.071 71.0382 54.6205C73.1591 53.6144 75.2968 52.6071 77.2958 51.3692C77.4143 51.2958 78.302 50.8673 77.6811 51.0422C76.9624 51.2447 76.2634 51.5003 75.5782 51.799C73.2039 52.8341 71.0495 54.1291 69.0096 55.7183C68.555 56.0725 68.5506 56.7028 68.3133 57.1804C68.2687 57.2702 68.123 57.494 68.123 57.5915C68.123 57.6437 68.2266 57.5709 68.2715 57.5448C68.7133 57.2885 69.1257 56.9705 69.5481 56.6852C73.4969 54.0187 77.8108 51.8925 81.2834 48.571C81.7203 48.1532 82.1513 47.788 82.6528 47.4546C82.6793 47.437 82.9665 47.2923 82.7596 47.3518C81.593 47.6872 80.4434 48.4496 79.4405 49.0989C77.0981 50.6155 75.0099 52.474 72.9415 54.3402C72.5839 54.6629 72.2845 54.9316 71.9434 55.2511C71.8502 55.3385 71.6269 55.6246 71.651 55.4987C71.7865 54.7897 72.6671 53.9569 73.1133 53.462C74.0101 52.4671 75.0416 51.6037 75.9217 50.5938C76.1997 50.2748 76.448 49.9318 76.7202 49.6081C76.7826 49.5339 76.9797 49.3981 76.8873 49.3698C76.4654 49.2406 75.5177 49.8635 75.179 50.0238C75.1567 50.0344 73.8201 50.7438 73.8421 50.7619C74.0273 50.9144 75.07 50.3967 75.2301 50.3368C76.5532 49.8419 77.894 49.3913 79.1712 48.7813C80.9234 47.9443 82.4359 46.7731 84.129 45.8476C84.9047 45.4236 85.7023 45.043 86.4547 44.577C86.7422 44.399 86.9109 44.2305 86.5986 44.5863C85.8416 45.4491 85.1625 46.377 84.4818 47.3004C83.265 48.9512 81.9413 50.5074 80.6381 52.0886C80.0036 52.8585 79.4369 53.6459 78.8927 54.4803C78.8213 54.5898 78.8133 54.5704 78.9531 54.4149C79.3447 53.9794 79.8048 53.6194 80.2761 53.2751C81.9177 52.0756 83.6635 51.0112 85.4242 50.0005C87.0048 49.0932 88.7736 48.3368 90.2381 47.2397C90.5978 46.9702 90.0036 47.2102 89.941 47.2397C88.7997 47.7769 87.6511 48.2179 86.4733 48.6691C84.8784 49.2801 83.3439 49.9973 81.8915 50.9021C81.2281 51.3153 79.3483 52.6952 79.9 52.14C80.792 51.2424 82.0144 50.6134 83.0335 49.8837C84.764 48.6446 86.4007 47.2868 88.0748 45.9737C88.4601 45.6716 89.6763 44.9834 89.1889 45.0161C88.5776 45.0571 87.6934 45.7936 87.2021 46.0765C83.4909 48.2137 79.9983 50.633 76.6041 53.2471C75.0224 54.4654 73.3542 55.6243 71.8506 56.9422C71.4873 57.2606 71.8095 57.1162 72.1245 56.9842C73.7389 56.3079 75.2456 55.4241 76.7434 54.5224C77.7737 53.9021 78.7858 53.2585 79.7933 52.6024C80.397 52.2093 78.7164 53.5618 78.1778 54.0412C75.861 56.1036 73.2809 57.816 70.7504 59.5909C70.6925 59.6315 70.5334 59.6714 70.5833 59.7217C70.6014 59.7399 70.6302 59.7008 70.6529 59.689C71.1888 59.4111 70.5498 59.7227 71.4746 59.2685C73.5596 58.2444 75.6547 57.2531 77.6672 56.0873C77.9413 55.9285 78.1922 55.7239 78.4842 55.6015C78.8197 55.4608 77.9682 56.1178 77.6904 56.3536C75.9101 57.8648 73.9605 59.1209 71.9202 60.2448C71.453 60.5022 70.1191 61.3132 70.4626 60.9035C71.2976 59.9077 72.6438 59.2599 73.7307 58.6099C75.0058 57.8473 76.5146 57.1831 77.6579 56.2181C78.0795 55.8623 76.7274 56.8125 76.2931 57.1524C74.1103 58.8608 71.7838 60.322 69.5435 61.9452C69.3733 62.0685 69.1655 62.2896 69.4738 61.9265C70.6845 60.5009 72.1271 59.2451 73.5078 57.9932C74.2278 57.3404 74.8128 56.8297 75.5411 56.2088C75.8097 55.9797 76.347 55.6367 76.5716 55.3165C76.9332 54.8012 75.4484 55.8846 74.9283 56.2368C72.9939 57.5466 71.1168 58.9406 69.1814 60.2495C68.2925 60.8507 67.3966 61.4497 66.4704 61.9919C66.4532 62.002 65.843 62.4355 66.0387 62.0573C66.5981 60.9764 67.6549 60.0615 68.5222 59.2452C69.5951 58.2352 70.7005 57.2482 71.8181 56.2882C71.9578 56.1682 71.9456 56.1861 71.8367 56.3255C71.45 56.8208 71.0031 57.2657 70.5369 57.6849C69.6151 58.5138 68.4225 59.1809 67.603 60.114C67.4258 60.3159 67.5073 60.318 67.7841 60.3336C68.7331 60.3872 69.6906 60.2489 70.639 60.2355C70.8837 60.232 71.4373 60.1722 71.3539 60.4037C71.1917 60.8535 70.4142 61.435 70.0959 61.7584C67.0959 64.8054 71.3234 60.5044 69.3253 62.5151C69.2842 62.5565 69.174 62.5994 69.2092 62.6459C69.2482 62.6975 69.3375 62.6303 69.3996 62.6132C69.5762 62.5648 69.7502 62.5071 69.9241 62.4497C70.657 62.2082 72.7939 61.3509 72.1291 61.7444C70.5171 62.6986 68.7921 63.2606 67.2967 64.4351C66.9587 64.7005 68.267 63.9172 68.3458 63.8698C68.393 63.8414 69.6066 63.0952 69.2185 63.2626C69.114 63.3077 68.1885 63.8263 68.5036 63.5709C68.5579 63.5268 69.285 63.0828 68.9957 63.1972C68.7956 63.2763 67.9533 63.905 68.5222 63.5615" stroke="white" stroke-width="3" stroke-linecap="round"/>
<rect width="69" height="94" fill="white"/>
<path d="M9.53004 -5.73516C8.82603 -5.34451 8.55225 -4.68039 8.5327 -3.33263V-2.14114L5.46245 -2.063C2.84199 -2.00441 2.23576 -1.94581 1.47309 -1.59423C0.182415 -0.988711 -0.756258 -0.0706686 -1.38204 1.17943L-1.9296 2.29279L-1.98827 47.3157C-2.02738 80.9902 -1.96871 92.4754 -1.81227 92.8856C-1.32337 94.0771 -3.6505 93.9989 33.6813 93.9989H67.8256L68.4905 93.3348L69.1553 92.6707V82.5332V72.4153L73.3598 68.2157C76.5865 64.9928 77.5839 63.8795 77.6816 63.4107C77.8967 62.2387 76.9776 61.2035 75.7065 61.184C74.9634 61.184 74.8069 61.3207 68.6665 67.4344L62.4086 73.6849L59.9055 71.1847L57.4219 68.7041L70.7785 55.3632L84.1155 42.0419L86.6186 44.5421L89.1022 47.0227L87.1466 48.976C85.0932 51.0074 84.6435 51.7692 84.9759 52.6286C85.2497 53.3709 86.1101 53.9569 86.9315 53.9569C87.5964 53.9569 87.9288 53.6639 92.3484 49.2104C97.8631 43.7022 97.9804 43.5068 98 40.3816C98 38.7799 97.9413 38.5065 97.3742 37.3345C96.6115 35.7719 95.2035 34.4046 93.6391 33.6819C92.6808 33.2326 92.2702 33.1545 90.6666 33.1545C87.4595 33.1545 87.831 32.881 77.799 42.8818L69.1553 51.5153V27.2752C69.1553 0.280924 69.2336 1.90214 67.7864 0.0855939C67.278 -0.578519 66.6522 -1.06684 65.8895 -1.43796C64.8335 -1.96534 64.5598 -2.00441 62.0762 -2.063L59.3775 -2.14114V-3.41077C59.3775 -4.60226 59.3384 -4.71946 58.7126 -5.34451C57.9891 -6.06722 57.3437 -6.18441 56.4637 -5.73516C55.7597 -5.36404 55.4664 -4.66086 55.4664 -3.27404V-2.10207H52.7286H49.9908V-3.39123C49.9908 -4.60226 49.9517 -4.71946 49.3259 -5.34451C48.6023 -6.06722 47.957 -6.18441 47.077 -5.73516C46.373 -5.36404 46.0796 -4.66086 46.0796 -3.27404V-2.10207H43.3418H40.604V-3.39123C40.604 -4.60226 40.5649 -4.71946 39.9391 -5.34451C39.2351 -6.04769 38.6289 -6.16488 37.7685 -5.77423C37.0253 -5.44217 36.6929 -4.64133 36.6929 -3.27404V-2.10207H33.9551H31.2173V-3.39123C31.2173 -4.60226 31.1782 -4.71946 30.5524 -5.34451C29.8288 -6.06722 29.1835 -6.18441 28.3035 -5.73516C27.5995 -5.36404 27.3062 -4.66086 27.3062 -3.27404V-2.10207H24.5684H21.8306V-3.39123C21.8306 -4.60226 21.7915 -4.71946 21.1657 -5.34451C20.4617 -6.04769 19.8554 -6.16488 18.995 -5.77423C18.2519 -5.44217 17.9194 -4.64133 17.9194 -3.27404V-2.10207H15.1816H12.4438V-3.27404C12.4438 -4.66086 12.2092 -5.24684 11.466 -5.67656C10.8012 -6.06722 10.1754 -6.08675 9.53004 -5.73516ZM8.5327 4.34373C8.5327 7.11738 8.68914 7.72289 9.53004 8.17214C10.5469 8.69952 11.7789 8.32841 12.2092 7.3713C12.3461 7.05878 12.4438 5.88682 12.4438 4.34373V1.80447H15.1816H17.9194V4.34373C17.9194 7.11738 18.0759 7.72289 18.9168 8.17214C19.5817 8.50419 20.0901 8.52373 20.755 8.21121C21.6546 7.80102 21.8306 7.15644 21.8306 4.34373V1.80447H24.5684H27.3062V4.34373C27.3062 6.17981 27.3844 7.05878 27.5799 7.44943C28.2644 8.73859 30.2591 8.73859 30.9435 7.44943C31.1391 7.05878 31.2173 6.17981 31.2173 4.34373V1.80447H33.9551H36.6929V4.34373C36.6929 7.15644 36.8689 7.80102 37.7685 8.21121C38.4334 8.52373 38.9418 8.50419 39.6067 8.17214C40.4476 7.72289 40.604 7.11738 40.604 4.34373V1.80447H43.3418H46.0796V4.34373C46.0796 7.11738 46.2361 7.72289 47.077 8.17214C48.0939 8.69952 49.3259 8.32841 49.7561 7.3713C49.893 7.05878 49.9908 5.88682 49.9908 4.34373V1.80447H52.7286H55.4664V4.34373C55.4664 7.11738 55.6228 7.72289 56.4637 8.17214C57.1482 8.52373 57.6957 8.52373 58.3802 8.17214C59.2211 7.72289 59.3775 7.11738 59.3775 4.34373V1.80447H61.646H63.9144L64.5793 2.46858L65.2442 3.1327V29.287V55.4218L59.1624 61.477L53.0806 67.5321L48.9934 75.6772C46.7445 80.1698 44.9063 84.0177 44.9063 84.2131C44.9063 85.2288 45.8645 86.1859 46.8619 86.1859C47.077 86.1859 50.8903 84.3693 55.3295 82.1621C61.9393 78.8611 63.5429 77.9821 64.3251 77.2399L65.2442 76.3414V83.2169V90.0924H33.564H1.88376V46.6712C1.90332 11.0239 1.94243 3.1913 2.15754 2.80064C2.62688 1.96073 3.17444 1.824 5.95135 1.80447H8.5327V4.34373ZM91.9768 37.2564C92.9546 37.6666 93.3849 38.0767 93.8151 39.0143C94.5191 40.5379 94.1084 42.081 92.6417 43.5068L91.84 44.2686L89.3564 41.788L86.8728 39.3073L87.6355 38.5065C89.0044 37.0806 90.5102 36.6509 91.9768 37.2564ZM57.109 74.056L59.0451 75.9898L55.2708 77.8844C53.2175 78.9197 51.477 79.7205 51.4183 79.6815C51.3401 79.6033 55.0166 72.1223 55.1339 72.1223C55.1535 72.1223 56.053 73.0013 57.109 74.056Z" fill="black"/>
<path d="M17.0981 19.5988C16.2767 19.7941 9.86247 23.8374 9.08024 24.6773C8.76735 24.9898 8.53268 25.4781 8.53268 25.7516C8.53268 26.3962 9.02158 27.3337 9.49091 27.5877C10.4296 28.076 11.0945 27.822 14.2038 25.8297L17.235 23.8764L17.3914 24.5015C17.8021 26.0641 19.4643 27.1775 20.9897 26.9431C21.4199 26.8649 22.339 26.3962 23.1212 25.8492L24.5292 24.8726L24.979 25.5953C25.6439 26.611 26.6021 27.197 27.5995 27.197C28.1275 27.197 29.4964 26.8063 31.3151 26.1227C32.9186 25.5367 34.2289 25.0679 34.2289 25.107C34.4244 25.6734 35.148 26.7673 35.5391 27.0407C36.3995 27.6853 37.3969 27.783 43.6352 27.783C49.013 27.783 49.7756 27.7439 50.3819 27.4314C51.5943 26.8259 51.9072 25.2047 50.949 24.3452C50.5774 23.9936 50.069 23.9741 44.3783 23.8764L38.2182 23.7788L37.9444 22.9975C37.612 22.0013 36.7516 21.22 35.676 20.927C34.7764 20.6926 34.3462 20.8098 29.9071 22.4701L28.3035 23.0756L28.1666 22.6459C27.9124 21.8255 27.2279 21.0833 26.3675 20.7121C25.1159 20.1457 24.1577 20.341 22.4954 21.513L21.1461 22.4701L20.6572 21.4739C19.8945 19.9308 18.6625 19.2862 17.0981 19.5988Z" fill="black"/>
<path d="M56.0335 24.4429C55.0166 25.4586 55.3881 26.9431 56.7766 27.5291C57.3828 27.7635 57.5197 27.7635 58.1651 27.451C60.0815 26.5134 59.5144 23.8765 57.3828 23.8765C56.7962 23.8765 56.4833 24.0132 56.0335 24.4429Z" fill="black"/>
<path d="M15.7488 37.2173C12.5416 39.1706 9.5496 41.1825 9.04115 41.6903C8.57181 42.2177 8.49359 42.3935 8.59137 43.0967C8.72826 44.1319 9.45182 44.7765 10.4492 44.7765C11.0358 44.7765 11.7789 44.3858 14.2039 42.8427L17.2154 40.909L17.5283 41.8075C17.7239 42.3935 18.0759 42.9013 18.5648 43.292C19.2101 43.8194 19.4839 43.8975 20.4617 43.8975C21.5177 43.8975 21.7132 43.8194 23.0626 42.9013L24.5293 41.9052L24.9986 42.5888C25.6439 43.6045 26.6022 44.1905 27.6386 44.1905C28.3231 44.1905 31.1978 43.2725 33.9551 42.1591C34.1702 42.0614 34.3267 42.2177 34.5027 42.706C34.8156 43.5655 35.6956 44.3077 36.6929 44.5812C37.2013 44.7179 41.0147 44.7765 47.8396 44.7374L58.2433 44.6788L58.8104 44.0342C59.1233 43.6827 59.3775 43.1748 59.3775 42.9013C59.3775 42.2568 58.8886 41.3192 58.4193 41.0653C58.1651 40.9481 54.5473 40.8699 48.133 40.8699C38.8831 40.8699 38.2378 40.8504 38.14 40.5184C37.6511 38.8581 36.5756 37.94 35.0893 37.94C34.2876 37.94 31.628 38.7799 28.6751 39.9714C28.4404 40.0691 28.2644 39.8738 28.0102 39.3073C27.6191 38.4088 26.6022 37.647 25.5266 37.4517C24.6857 37.2955 23.6101 37.7252 22.1239 38.7995L21.1657 39.4831L20.6572 38.4674C19.6794 36.4555 17.8021 35.9868 15.7488 37.2173Z" fill="black"/>
<path d="M13.2261 55.8124C11.2314 57.0821 9.3736 58.3517 9.08026 58.6642C7.92648 59.8753 8.76737 61.7699 10.4492 61.7699C11.0945 61.7699 11.7203 61.4379 14.2234 59.8362L17.235 57.8829L17.4697 58.6838C17.8803 60.0901 19.0928 60.9886 20.5595 60.9886C21.3417 60.9886 22.0261 60.6761 23.395 59.6995C23.9035 59.3283 24.3924 59.0353 24.4902 59.0353C24.5879 59.0353 24.8617 59.3869 25.0964 59.7971C25.331 60.2268 25.8199 60.6761 26.2111 60.8714C27.3453 61.3988 28.3622 61.2621 31.4129 60.1292L34.2289 59.0939L34.5613 59.8167C34.9524 60.6761 35.6956 61.3011 36.6733 61.5941C37.1231 61.7113 40.0565 61.7699 45.0627 61.7309L52.7677 61.6723L53.3348 61.0277C54.1561 60.1096 54.0388 59.0158 53.0415 58.215C52.6699 57.9024 51.9659 57.8634 45.4343 57.8634C38.7658 57.8634 38.2378 57.8438 38.14 57.5118C37.5729 55.7929 36.8102 55.1093 35.2653 54.9725C34.3853 54.9139 33.8378 55.0507 31.3346 55.9882C29.7311 56.5938 28.4013 57.0625 28.3817 57.043C28.3426 57.0039 28.1471 56.6328 27.932 56.1836C27.4822 55.2851 26.7782 54.7577 25.7613 54.5233C24.7639 54.2889 23.8839 54.5819 22.4172 55.6171L21.1461 56.4961L20.7355 55.5585C20.1683 54.2889 19.3274 53.7029 17.939 53.6052L16.8439 53.5271L13.2261 55.8124Z" fill="black"/>
<path d="M16.7461 70.6964C16.2572 70.8722 9.17804 75.4429 8.92381 75.7359C8.78692 75.8921 8.65003 76.3414 8.59137 76.7711C8.39581 78.1774 9.84293 79.2322 11.1727 78.6853C11.5052 78.5486 12.8741 77.7087 14.243 76.8297C15.6119 75.9507 16.8634 75.1889 17.0003 75.1303C17.1959 75.0717 17.3132 75.228 17.3914 75.6187C17.5479 76.3414 18.5257 77.4743 19.2883 77.7868C20.3835 78.236 21.6546 77.9431 23.0626 76.9469C23.7666 76.439 24.4119 76.0288 24.5097 76.0288C24.5879 76.0288 24.7835 76.3023 24.9399 76.6344C25.0768 76.9469 25.5462 77.4547 25.9568 77.7282C27.1302 78.49 28.108 78.4118 31.2173 77.2203C32.6644 76.6734 33.9551 76.2242 34.0724 76.2242C34.1898 76.2242 34.4049 76.4781 34.5418 76.7906C34.8156 77.4938 35.6369 78.2751 36.3605 78.5486C37.1622 78.8611 38.9614 78.8025 39.6263 78.4704C40.3303 78.0993 40.604 77.6305 40.604 76.7516C40.604 75.814 39.9978 75.1108 39.0005 74.9155C38.3551 74.7788 38.1596 74.642 38.0422 74.2514C37.6902 72.9036 36.3996 71.927 34.972 71.927C34.5222 71.927 33.0164 72.3762 31.3151 73.0013C29.7311 73.6068 28.4208 74.0756 28.3817 74.0365C28.3622 73.9974 28.1471 73.6068 27.8928 73.1771C27.3257 72.1223 26.2893 71.5363 25.0182 71.5363C24.1577 71.5363 23.8448 71.6731 22.5932 72.513L21.1657 73.4896L20.6572 72.4544C20.3052 71.7317 19.9532 71.3215 19.3861 71.0089C18.643 70.5792 17.4305 70.4425 16.7461 70.6964Z" fill="black"/>
<path d="M79.9697 56.1836C79.5199 56.5742 79.4221 56.8086 79.4221 57.5704C79.4221 58.3322 79.5199 58.5666 79.9697 58.9572C81.2212 60.0315 83.2355 59.1721 83.2355 57.5704C83.2355 55.9687 81.2212 55.1093 79.9697 56.1836Z" fill="black"/>
</svg>
