<?xml version="1.0" standalone="no"?>
<!DOCTYPE svg PUBLIC "-//W3C//DTD SVG 20010904//EN"
 "http://www.w3.org/TR/2001/REC-SVG-20010904/DTD/svg10.dtd">
<svg version="1.0" xmlns="http://www.w3.org/2000/svg"
 width="512.000000pt" height="512.000000pt" viewBox="0 0 512.000000 512.000000"
 preserveAspectRatio="xMidYMid meet">

<g transform="translate(0.000000,512.000000) scale(0.100000,-0.100000)"
fill="#fff" stroke="none">
<path d="M591 5106 c-36 -20 -50 -54 -51 -123 l0 -61 -157 -4 c-134 -3 -165
-6 -204 -24 -66 -31 -114 -78 -146 -142 l-28 -57 -3 -2305 c-2 -1724 1 -2312
9 -2333 25 -61 -94 -57 1815 -57 l1746 0 34 34 34 34 0 519 0 518 215 215
c165 165 216 222 221 246 11 60 -36 113 -101 114 -38 0 -46 -7 -360 -320
l-320 -320 -128 128 -127 127 683 683 682 682 128 -128 127 -127 -100 -100
c-105 -104 -128 -143 -111 -187 14 -38 58 -68 100 -68 34 0 51 15 277 243 282
282 288 292 289 452 0 82 -3 96 -32 156 -39 80 -111 150 -191 187 -49 23 -70
27 -152 27 -164 0 -145 14 -658 -498 l-442 -442 0 1241 c0 1382 4 1299 -70
1392 -26 34 -58 59 -97 78 -54 27 -68 29 -195 32 l-138 4 0 65 c0 61 -2 67
-34 99 -37 37 -70 43 -115 20 -36 -19 -51 -55 -51 -126 l0 -60 -140 0 -140 0
0 66 c0 62 -2 68 -34 100 -37 37 -70 43 -115 20 -36 -19 -51 -55 -51 -126 l0
-60 -140 0 -140 0 0 66 c0 62 -2 68 -34 100 -36 36 -67 42 -111 22 -38 -17
-55 -58 -55 -128 l0 -60 -140 0 -140 0 0 66 c0 62 -2 68 -34 100 -37 37 -70
43 -115 20 -36 -19 -51 -55 -51 -126 l0 -60 -140 0 -140 0 0 66 c0 62 -2 68
-34 100 -36 36 -67 42 -111 22 -38 -17 -55 -58 -55 -128 l0 -60 -140 0 -140 0
0 60 c0 71 -12 101 -50 123 -34 20 -66 21 -99 3z m-51 -516 c0 -142 8 -173 51
-196 52 -27 115 -8 137 41 7 16 12 76 12 155 l0 130 140 0 140 0 0 -130 c0
-142 8 -173 51 -196 34 -17 60 -18 94 -2 46 21 55 54 55 198 l0 130 140 0 140
0 0 -130 c0 -94 4 -139 14 -159 35 -66 137 -66 172 0 10 20 14 65 14 159 l0
130 140 0 140 0 0 -130 c0 -144 9 -177 55 -198 34 -16 60 -15 94 2 43 23 51
54 51 196 l0 130 140 0 140 0 0 -130 c0 -142 8 -173 51 -196 52 -27 115 -8
137 41 7 16 12 76 12 155 l0 130 140 0 140 0 0 -130 c0 -142 8 -173 51 -196
35 -18 63 -18 98 0 43 23 51 54 51 196 l0 130 116 0 116 0 34 -34 34 -34 0
-1339 0 -1338 -311 -310 -311 -310 -209 -417 c-115 -230 -209 -427 -209 -437
0 -52 49 -101 100 -101 11 0 206 93 433 206 338 169 420 214 460 252 l47 46 0
-352 0 -352 -1620 0 -1620 0 0 2223 c1 1825 3 2226 14 2246 24 43 52 50 194
51 l132 0 0 -130z m4267 -1685 c50 -21 72 -42 94 -90 36 -78 15 -157 -60 -230
l-41 -39 -127 127 -127 127 39 41 c70 73 147 95 222 64z m-1783 -1884 l99 -99
-193 -97 c-105 -53 -194 -94 -197 -92 -4 4 184 387 190 387 1 0 47 -45 101
-99z"/>
<path d="M978 3809 c-42 -10 -370 -217 -410 -260 -16 -16 -28 -41 -28 -55 0
-33 25 -81 49 -94 48 -25 82 -12 241 90 l155 100 8 -32 c21 -80 106 -137 184
-125 22 4 69 28 109 56 l72 50 23 -37 c34 -52 83 -82 134 -82 27 0 97 20 190
55 82 30 149 54 149 52 10 -29 47 -85 67 -99 44 -33 95 -38 414 -38 275 0 314
2 345 18 62 31 78 114 29 158 -19 18 -45 19 -336 24 l-315 5 -14 40 c-17 51
-61 91 -116 106 -46 12 -68 6 -295 -79 l-82 -31 -7 22 c-13 42 -48 80 -92 99
-64 29 -113 19 -198 -41 l-69 -49 -25 51 c-39 79 -102 112 -182 96z"/>
<path d="M2969 3561 c-52 -52 -33 -128 38 -158 31 -12 38 -12 71 4 98 48 69
183 -40 183 -30 0 -46 -7 -69 -29z"/>
<path d="M909 2907 c-164 -100 -317 -203 -343 -229 -24 -27 -28 -36 -23 -72 7
-53 44 -86 95 -86 30 0 68 20 192 99 l154 99 16 -46 c10 -30 28 -56 53 -76 33
-27 47 -31 97 -31 54 0 64 4 133 51 l75 51 24 -35 c33 -52 82 -82 135 -82 35
0 182 47 323 104 11 5 19 -3 28 -28 16 -44 61 -82 112 -96 26 -7 221 -10 570
-8 l532 3 29 33 c16 18 29 44 29 58 0 33 -25 81 -49 94 -13 6 -198 10 -526 10
-473 0 -506 1 -511 18 -25 85 -80 132 -156 132 -41 0 -177 -43 -328 -104 -12
-5 -21 5 -34 34 -20 46 -72 85 -127 95 -43 8 -98 -14 -174 -69 l-49 -35 -26
52 c-50 103 -146 127 -251 64z"/>
<path d="M780 1955 c-102 -65 -197 -130 -212 -146 -59 -62 -16 -159 70 -159
33 0 65 17 193 99 l154 100 12 -41 c21 -72 83 -118 158 -118 40 0 75 16 145
66 26 19 51 34 56 34 5 0 19 -18 31 -39 12 -22 37 -45 57 -55 58 -27 110 -20
266 38 l144 53 17 -37 c20 -44 58 -76 108 -91 23 -6 173 -9 429 -7 l394 3 29
33 c42 47 36 103 -15 144 -19 16 -55 18 -389 18 -341 0 -368 1 -373 18 -29 88
-68 123 -147 130 -45 3 -73 -4 -201 -52 -82 -31 -150 -55 -151 -54 -2 2 -12
21 -23 44 -23 46 -59 73 -111 85 -51 12 -96 -3 -171 -56 l-65 -45 -21 48 c-29
65 -72 95 -143 100 l-56 4 -185 -117z"/>
<path d="M960 1193 c-25 -9 -387 -243 -400 -258 -7 -8 -14 -31 -17 -53 -10
-72 64 -126 132 -98 17 7 87 50 157 95 70 45 134 84 141 87 10 3 16 -5 20 -25
8 -37 58 -95 97 -111 56 -23 121 -8 193 43 36 26 69 47 74 47 4 0 14 -14 22
-31 7 -16 31 -42 52 -56 60 -39 110 -35 269 26 74 28 140 51 146 51 6 0 17
-13 24 -29 14 -36 56 -76 93 -90 41 -16 133 -13 167 4 36 19 50 43 50 88 0 48
-31 84 -82 94 -33 7 -43 14 -49 34 -18 69 -84 119 -157 119 -23 0 -100 -23
-187 -55 -81 -31 -148 -55 -150 -53 -1 2 -12 22 -25 44 -29 54 -82 84 -147 84
-44 0 -60 -7 -124 -50 l-73 -50 -26 53 c-18 37 -36 58 -65 74 -38 22 -100 29
-135 16z"/>
<path d="M4193 1936 c-23 -20 -28 -32 -28 -71 0 -39 5 -51 28 -71 64 -55 167
-11 167 71 0 82 -103 126 -167 71z"/>
</g>
</svg>
