<svg xmlns="http://www.w3.org/2000/svg" width="195" height="40" viewBox="0 0 195 40">
  <g id="logo" transform="translate(-267 -142)">
    <rect id="Rectangle_2" data-name="Rectangle 2" width="195" height="40" transform="translate(267 142)" fill="none" opacity="0"/>
    <path id="Path_27" data-name="Path 27" d="M198.138,165.407l-10.88,33.7h7.871l1.9-6.55h10.625l1.921,6.55h7.87l-10.9-33.7Zm.625,21.134,3.495-12.06h.139l3.518,12.06Z" transform="translate(81.89 -20.36)" fill="#f5435b"/>
    <path id="Path_28" data-name="Path 28" d="M250.165,169.283a13.868,13.868,0,0,0-9.955-3.872H228.872l6.992,21.61v-15.6H239.7a5.987,5.987,0,0,1,4.859,2.133,8.56,8.56,0,0,1,1.778,5.649v6.084a8.489,8.489,0,0,1-1.778,5.65A5.9,5.9,0,0,1,239.7,193.1H237.84l1.936,6h.435a13.868,13.868,0,0,0,9.955-3.872,13.126,13.126,0,0,0,3.99-9.955v-6.044A13.126,13.126,0,0,0,250.165,169.283Z" transform="translate(63.591 -20.362)" fill="#39b36a"/>
    <path id="Path_6614" data-name="Path 6614" d="M-30.018,14.317a14.8,14.8,0,0,1-5.47-.933,8.553,8.553,0,0,1-3.655-2.567,5.663,5.663,0,0,1-1.3-3.6v-.57a.458.458,0,0,1,.519-.519h3.733a.458.458,0,0,1,.519.519V6.9a3.09,3.09,0,0,0,1.581,2.541,6.931,6.931,0,0,0,4.018,1.089,6.489,6.489,0,0,0,3.785-1.011,3.026,3.026,0,0,0,1.452-2.567A2.43,2.43,0,0,0-26.181,4.7a21.2,21.2,0,0,0-4.355-1.581,40.747,40.747,0,0,1-4.952-1.685A9.2,9.2,0,0,1-38.859-1a5.982,5.982,0,0,1-1.374-4.07A6.553,6.553,0,0,1-37.51-10.6a11.738,11.738,0,0,1,7.233-2.048,13.753,13.753,0,0,1,5.315.959,8.1,8.1,0,0,1,3.552,2.67,6.366,6.366,0,0,1,1.244,3.837v.156a.458.458,0,0,1-.519.519h-3.63a.458.458,0,0,1-.519-.519v-.156a2.975,2.975,0,0,0-1.478-2.515A7.02,7.02,0,0,0-30.329-8.7a6.966,6.966,0,0,0-3.707.881,2.692,2.692,0,0,0-1.426,2.385,2.479,2.479,0,0,0,1.374,2.281A22.1,22.1,0,0,0-29.655-1.5a47.543,47.543,0,0,1,5,1.633,8.917,8.917,0,0,1,3.4,2.385,5.988,5.988,0,0,1,1.4,4.122,6.629,6.629,0,0,1-2.774,5.6A12.048,12.048,0,0,1-30.018,14.317ZM-4.2-8.808a.458.458,0,0,1-.519.519h-5.6a.183.183,0,0,0-.207.207V5.658A4.239,4.239,0,0,0-9.537,8.8a4.243,4.243,0,0,0,3.059.959h1.5a.458.458,0,0,1,.519.519v3.215a.458.458,0,0,1-.519.519q-1.659.1-2.385.1A10.2,10.2,0,0,1-13.3,12.684q-2-1.426-2-5.263v-15.5A.183.183,0,0,0-15.5-8.29h-3.163a.458.458,0,0,1-.519-.519v-3.059a.458.458,0,0,1,.519-.519H-15.5a.183.183,0,0,0,.207-.207v-6.118a.458.458,0,0,1,.519-.519h3.733a.458.458,0,0,1,.519.519v6.118a.183.183,0,0,0,.207.207h5.6a.458.458,0,0,1,.519.519Zm14.57-3.837a6.63,6.63,0,0,1,3.007.674.48.48,0,0,1,.259.622l-.83,3.889q-.052.467-.622.311a5.425,5.425,0,0,0-2.074-.363l-.726.052A5.814,5.814,0,0,0,5.37-5.775,5.576,5.576,0,0,0,3.789-1.653v15.14a.458.458,0,0,1-.519.519H-.671a.458.458,0,0,1-.519-.519V-11.867a.458.458,0,0,1,.519-.519H3.27a.458.458,0,0,1,.519.519v2.748q0,.156.078.181T4-9.015A7.227,7.227,0,0,1,10.374-12.645ZM35.884-2.482a41.184,41.184,0,0,1,.156,4.77.458.458,0,0,1-.519.519H18.981a.183.183,0,0,0-.207.207,8.974,8.974,0,0,0,.311,2.7,5.543,5.543,0,0,0,2.307,3.241,7.694,7.694,0,0,0,4.381,1.167,6.659,6.659,0,0,0,5.911-3.163q.259-.519.674-.156l2.955,1.97a.492.492,0,0,1,.156.674,10.064,10.064,0,0,1-4.122,3.681,13.216,13.216,0,0,1-6.041,1.348,11.6,11.6,0,0,1-6.378-1.659A10.119,10.119,0,0,1,15.04,8.1,19.685,19.685,0,0,1,13.8.681a21.988,21.988,0,0,1,.57-5.755A9.909,9.909,0,0,1,18.1-10.726,11.092,11.092,0,0,1,24.892-12.8q5.237,0,7.829,2.618T35.884-2.482ZM24.892-8.5A5.87,5.87,0,0,0,21.21-7.382,5.5,5.5,0,0,0,19.24-4.4a12.121,12.121,0,0,0-.467,2.9.183.183,0,0,0,.207.207H30.855a.183.183,0,0,0,.207-.207,15.18,15.18,0,0,0-.311-2.541A5.881,5.881,0,0,0,28.7-7.278,5.924,5.924,0,0,0,24.892-8.5Zm23.7-4.3a12.8,12.8,0,0,1,5.522,1.115,8.459,8.459,0,0,1,3.63,3.111,8.269,8.269,0,0,1,1.27,4.537V13.488a.458.458,0,0,1-.519.519H54.55a.458.458,0,0,1-.519-.519V11.621q0-.259-.259-.1a9.01,9.01,0,0,1-3.293,2.152,11.918,11.918,0,0,1-4.33.752A10.077,10.077,0,0,1,39.8,12.477a6.974,6.974,0,0,1-2.515-5.885A7.754,7.754,0,0,1,40.11.24q2.826-2.307,7.907-2.307h5.807a.183.183,0,0,0,.207-.207v-1.4A4.693,4.693,0,0,0,52.71-7.227,5.605,5.605,0,0,0,48.691-8.5a6.631,6.631,0,0,0-3.552.856,3.522,3.522,0,0,0-1.685,2.307.55.55,0,0,1-.622.467l-4.2-.57q-.519-.1-.467-.415a7.061,7.061,0,0,1,3.267-5A12.42,12.42,0,0,1,48.588-12.8ZM47.239,10.221a7.963,7.963,0,0,0,4.77-1.452,4.373,4.373,0,0,0,2.022-3.681V2.029a.183.183,0,0,0-.207-.207H48.95a8.768,8.768,0,0,0-4.874,1.193,3.761,3.761,0,0,0-1.815,3.318,3.345,3.345,0,0,0,1.374,2.9A6.049,6.049,0,0,0,47.239,10.221Zm42.829-22.97a8.252,8.252,0,0,1,6.222,2.359A9.042,9.042,0,0,1,98.572-3.83V13.488a.458.458,0,0,1-.519.519H94.164a.458.458,0,0,1-.519-.519V-2.793A5.8,5.8,0,0,0,92.22-6.915a4.961,4.961,0,0,0-3.811-1.53,5.262,5.262,0,0,0-3.889,1.5,5.465,5.465,0,0,0-1.5,4.044V13.488a.458.458,0,0,1-.519.519H78.609a.458.458,0,0,1-.519-.519V-2.793a5.8,5.8,0,0,0-1.426-4.122,4.961,4.961,0,0,0-3.811-1.53,5,5,0,0,0-3.811,1.5A5.636,5.636,0,0,0,67.617-2.9V13.488a.458.458,0,0,1-.519.519H63.158a.458.458,0,0,1-.519-.519V-11.867a.458.458,0,0,1,.519-.519H67.1a.458.458,0,0,1,.519.519V-10.1a.174.174,0,0,0,.078.156q.078.052.181-.052a8.133,8.133,0,0,1,6.637-2.748,9.352,9.352,0,0,1,4.511,1.011,7.01,7.01,0,0,1,2.9,2.981q.156.207.311,0a7.765,7.765,0,0,1,3.293-3.007A10.33,10.33,0,0,1,90.068-12.749Z" transform="translate(362.266 164.277)" fill="#0e1013"/>
  </g>
</svg>
