<svg width="100" height="100" viewBox="0 0 100 100" fill="none" xmlns="http://www.w3.org/2000/svg">
<circle cx="73" cy="74" r="21" fill="white"/>
<circle cx="48" cy="48" r="44" fill="white"/>
<path d="M43.0097 0.150798C30.9198 1.32267 20.8612 5.87345 13.1659 13.6274C9.90421 16.9281 7.1503 20.7758 5.00187 25.0922C-2.90829 40.9711 -1.32626 60.4047 8.96671 74.1156C15.4901 82.8266 24.6698 88.6469 36.5644 91.6352C39.0058 92.2602 39.2402 92.2602 40.4511 91.6547C41.8183 90.9711 42.3652 90.0922 42.4433 88.4125C42.5214 87.2602 42.4628 86.9672 42.0331 86.2445C41.3886 85.1313 40.4706 84.6625 37.8925 84.0375C24.9823 80.9906 15.2167 72.8461 10.6464 61.3031C4.51359 45.8149 8.94718 27.2211 21.2323 16.811C29.6503 9.68205 41.6816 6.47892 52.873 8.37345C65.0409 10.4438 75.4511 18.2367 80.8612 29.35C82.3652 32.4164 83.0878 34.4477 83.7909 37.5531C84.4159 40.3266 84.7284 41.1664 85.4316 41.8305C86.9355 43.2563 89.2597 43.2563 90.7831 41.7914C92.3066 40.3461 92.3261 38.686 90.9003 33.6274C86.5058 17.9633 73.2831 5.26799 57.1503 1.22502C52.9706 0.189861 47.1698 -0.259358 43.0097 0.150798Z" fill="#45350E"/>
<path d="M44.6307 17.6508C43.7518 18.0414 43.1268 18.6273 42.6581 19.5258C42.3065 20.2094 42.287 20.8148 42.287 31.0297V41.7914L41.6229 42.5726C40.8417 43.4906 40.3339 44.7992 40.3339 45.932C40.3339 46.7133 40.2557 46.8109 34.5722 52.3773C31.2128 55.639 28.6347 58.3344 28.4198 58.764C27.6972 60.1703 28.0682 62.3187 29.2206 63.3734C29.8847 63.9789 30.9979 64.4086 31.8768 64.4086C33.4198 64.389 34.0839 63.8617 40.119 57.8851C45.8612 52.2015 45.9003 52.1625 46.8768 52.0258C51.4081 51.4398 53.4589 46.225 50.6073 42.475L50.119 41.8304L50.0604 31.0101C50.0018 21.3422 49.9628 20.1117 49.6698 19.5844C48.6542 17.7289 46.4276 16.8695 44.6307 17.6508Z" fill="#45350E"/>
<path d="M70.1972 47.4945C58.6933 49.1547 50.8027 56.1859 48.0097 67.2406C47.5019 69.2523 47.4628 69.643 47.4628 73.5883C47.4628 77.5336 47.5019 77.9242 48.0097 79.9359C50.8222 91.0883 58.6933 98.0414 70.412 99.682C83.2441 101.498 95.7441 92.8656 99.0253 79.9359C102.033 68.1195 96.2324 55.5414 85.2558 50.0531C80.5683 47.7094 75.1386 46.7914 70.1972 47.4945ZM76.5449 55.3266C80.5878 56.0297 83.83 57.7289 86.662 60.6586C90.2363 64.3305 91.955 68.5297 91.955 73.5883C91.955 78.8422 90.041 83.2953 86.1933 86.9867C82.6581 90.3851 78.5175 92.0453 73.6347 92.0453C64.787 92.0258 57.8339 86.7523 55.6464 78.3539C54.9433 75.7172 54.9042 71.8109 55.5292 69.2328C57.4042 61.5766 62.8925 56.5375 70.705 55.307C72.873 54.975 74.5527 54.975 76.5449 55.3266Z" fill="#45350E"/>
<path d="M66.1152 64.1351C64.6503 64.7601 63.7714 66.1273 63.7714 67.7289C63.7714 69.0961 64.123 69.7015 66.1738 71.7719L67.9706 73.5883L66.1738 75.3851C64.1425 77.4554 63.7714 78.0804 63.7714 79.389C63.791 82.2797 66.6035 84.1742 69.1425 82.9828C69.5722 82.7875 70.666 81.85 71.5839 80.932C72.4824 80.014 73.3222 79.2523 73.4394 79.2523C73.5566 79.2523 74.3964 80.014 75.2949 80.932C77.0917 82.7484 78.0683 83.3344 79.2988 83.3539C80.998 83.3539 82.912 81.7328 83.205 80.0726C83.4589 78.5687 83.0488 77.7679 80.9003 75.5804L78.9277 73.5883L80.8027 71.6742C81.8378 70.639 82.7949 69.5648 82.9316 69.2914C83.2636 68.6078 83.2441 66.7719 82.873 66.0687C82.1699 64.7601 80.666 63.8226 79.2597 63.8226C78.0683 63.8422 77.0722 64.4476 75.2949 66.2445C74.3964 67.1625 73.5566 67.9242 73.4394 67.9242C73.3222 67.9242 72.4824 67.1625 71.5839 66.2445C70.666 65.3265 69.5722 64.389 69.1425 64.1937C68.205 63.764 67.0331 63.725 66.1152 64.1351Z" fill="#45350E"/>
</svg>
