<svg id="Icons" viewBox="0 0 60 60" xmlns="http://www.w3.org/2000/svg"><path fill="#424242" d="m27 17h4v11h-4z"/><path fill="#424242" d="m40 41h4v11h-4z"/><path fill="#424242" d="m29 41h4v11h-4z"/><path fill="#424242" d="m51 41h4v11h-4z"/><path fill="#424242" d="m58 38.362c0-.214-.093-.413-.249-.533l-15.263-11.66c-.147-.113-.318-.17-.488-.17s-.341.057-.489.17l-15.262 11.661c-.156.119-.249.318-.249.532 0 .352.248.638.553.638h30.895c.305 0 .553-.286.553-.638z"/><path fill="#424242" d="m2.553 15h30.895c.305 0 .553-.286.553-.638 0-.214-.093-.413-.249-.533l-15.264-11.66c-.147-.113-.318-.17-.488-.17s-.341.057-.489.17l-15.262 11.661c-.156.119-.249.318-.249.532 0 .352.248.638.553.638z"/><path fill="#424242" d="m32 30h-28c-1.103 0-2 .897-2 2v2h25.967l4.946-3.779c-.279-.142-.59-.221-.913-.221z"/><path fill="#424242" d="m16 17h4v11h-4z"/><path fill="#424242" d="m57.7 13h-2.7c-.553 0-1-.447-1-1 0-5.514-3.857-10-8.6-10-1.408 0-2.721.261-3.845.751 2.059.026 3.847.84 5.053 2.301 1.455 1.761 1.942 4.298 1.373 7.145-.094.467-.504.804-.98.804h-2.69c-.191 0-.265.108-.291.174-.056.138.031.222.06.25l6.697 6.498c.118.109.34.107.476-.017l6.671-6.482c.028-.027.115-.112.059-.252-.026-.064-.097-.171-.281-.171z"/><path fill="#424242" d="m5 47c.553 0 1 .447 1 1 0 5.514 3.857 10 8.6 10 1.408 0 2.721-.261 3.845-.751-2.059-.026-3.847-.84-5.053-2.301-1.455-1.761-1.942-4.298-1.373-7.145.094-.467.504-.804.98-.804h2.69c.191 0 .265-.108.291-.174.056-.138-.031-.222-.06-.25l-6.697-6.498c-.057-.053-.137-.08-.221-.08-.091 0-.185.032-.255.097l-6.671 6.482c-.028.027-.115.112-.059.252.026.064.097.171.281.171h2.7z"/><path fill="#424242" d="m5 17h4v11h-4z"/><path fill="#424242" d="m58 56c0-1.103-.897-2-2-2h-28c-1.103 0-2 .897-2 2v2h32.002z"/></svg>