<svg width="19" height="20" viewBox="0 0 19 20" fill="none" xmlns="http://www.w3.org/2000/svg">
<g clip-path="url(#clip0_28_410)">
<path d="M1.58337 8.33335C1.58337 5.19066 1.58337 3.61931 2.51087 2.643C3.43836 1.66669 4.93115 1.66669 7.91671 1.66669H11.0834C14.0689 1.66669 15.5617 1.66669 16.4892 2.643C17.4167 3.61931 17.4167 5.19066 17.4167 8.33335V11.6667C17.4167 14.8094 17.4167 16.3807 16.4892 17.357C15.5617 18.3334 14.0689 18.3334 11.0834 18.3334H7.91671C4.93115 18.3334 3.43836 18.3334 2.51087 17.357C1.58337 16.3807 1.58337 14.8094 1.58337 11.6667V8.33335Z" fill="white"/>
<path d="M7.12504 10C7.74337 10.6509 8.70837 11.6667 8.70837 11.6667L11.875 8.33335M7.91671 18.3334H11.0834C14.0689 18.3334 15.5617 18.3334 16.4892 17.357C17.4167 16.3807 17.4167 14.8094 17.4167 11.6667V8.33335C17.4167 5.19066 17.4167 3.61931 16.4892 2.643C15.5617 1.66669 14.0689 1.66669 11.0834 1.66669H7.91671C4.93115 1.66669 3.43836 1.66669 2.51087 2.643C1.58337 3.61931 1.58337 5.19066 1.58337 8.33335V11.6667C1.58337 14.8094 1.58337 16.3807 2.51087 17.357C3.43836 18.3334 4.93115 18.3334 7.91671 18.3334Z" stroke="#B6B8BA" stroke-width="1.5" stroke-linejoin="round"/>
</g>
<defs>
<clipPath id="clip0_28_410">
<rect width="19" height="20" fill="white"/>
</clipPath>
</defs>
</svg>
