<svg width="24" height="48" viewBox="0 0 24 48" fill="none" xmlns="http://www.w3.org/2000/svg">
<rect x="4.5" y="4.5" width="15" height="15" rx="7.5" fill="white" stroke="#DBDDE3"/>
<path d="M21 36C21 40.9706 16.9706 45 12 45C7.02944 45 3 40.9706 3 36C3 31.0294 7.02944 27 12 27C16.9706 27 21 31.0294 21 36Z" fill="#0F78D4"/>
<path d="M20 36C20 40.4183 16.4183 44 12 44C7.58172 44 4 40.4183 4 36C4 31.5817 7.58172 28 12 28C16.4183 28 20 31.5817 20 36Z" fill="white"/>
<path d="M19 36C19 39.866 15.866 43 12 43C8.13401 43 5 39.866 5 36C5 32.134 8.13401 29 12 29C15.866 29 19 32.134 19 36Z" fill="#0F78D4"/>
<path d="M15 36C15 37.6569 13.6569 39 12 39C10.3431 39 9 37.6569 9 36C9 34.3431 10.3431 33 12 33C13.6569 33 15 34.3431 15 36Z" fill="white"/>
</svg>
