<svg width="28" height="29" viewBox="0 0 28 29" fill="none" xmlns="http://www.w3.org/2000/svg">
<path d="M10.0581 5.76742L11.0282 6.00995V6.00995L10.0581 5.76742ZM17.9418 5.76742L16.9716 6.00995L17.9418 5.76742ZM9.33325 8.66667L10.3034 8.9092L11.0282 6.00995L10.0581 5.76742L9.08792 5.52488L8.36311 8.42413L9.33325 8.66667ZM12.3217 4V5H15.6781V4V3H12.3217V4ZM17.9418 5.76742L16.9716 6.00995L17.6964 8.9092L18.6666 8.66667L19.6367 8.42413L18.9119 5.52488L17.9418 5.76742ZM15.6781 4V5C16.2899 5 16.8232 5.4164 16.9716 6.00995L17.9418 5.76742L18.9119 5.52488C18.5409 4.04099 17.2077 3 15.6781 3V4ZM10.0581 5.76742L11.0282 6.00995C11.1766 5.4164 11.7099 5 12.3217 5V4V3C10.7922 3 9.4589 4.04099 9.08792 5.52488L10.0581 5.76742ZM6.99992 8.66667V9.66667H20.9999V8.66667V7.66667H6.99992V8.66667ZM25.6666 13.3333H24.6666V16.25H25.6666H26.6666V13.3333H25.6666ZM15.7499 25V24H6.99992V25V26H15.7499V25ZM2.33325 20.3333H3.33325V13.3333H2.33325H1.33325V20.3333H2.33325ZM6.99992 25V24C5.8717 24 5.12614 23.9979 4.57287 23.9235C4.04835 23.853 3.84872 23.7344 3.72378 23.6095L3.01667 24.3166L2.30956 25.0237C2.86804 25.5822 3.56008 25.8053 4.30637 25.9057C5.02389 26.0021 5.92824 26 6.99992 26V25ZM2.33325 20.3333H1.33325C1.33325 21.405 1.33113 22.3094 1.4276 23.0269C1.52793 23.7732 1.75109 24.4652 2.30956 25.0237L3.01667 24.3166L3.72378 23.6095C3.59884 23.4845 3.48028 23.2849 3.40976 22.7604C3.33538 22.2071 3.33325 21.4615 3.33325 20.3333H2.33325ZM20.9999 8.66667V9.66667C22.1281 9.66667 22.8737 9.66879 23.427 9.74318C23.9515 9.81369 24.1511 9.93225 24.2761 10.0572L24.9832 9.35008L25.6903 8.64298C25.1318 8.0845 24.4398 7.86135 23.6935 7.76101C22.9759 7.66454 22.0716 7.66667 20.9999 7.66667V8.66667ZM25.6666 13.3333H26.6666C26.6666 12.2617 26.6687 11.3573 26.5722 10.6398C26.4719 9.8935 26.2488 9.20145 25.6903 8.64298L24.9832 9.35008L24.2761 10.0572C24.401 10.1821 24.5196 10.3818 24.5901 10.9063C24.6645 11.4596 24.6666 12.2051 24.6666 13.3333H25.6666ZM6.99992 8.66667V7.66667C5.92824 7.66667 5.02389 7.66454 4.30637 7.76101C3.56008 7.86135 2.86804 8.0845 2.30956 8.64298L3.01667 9.35008L3.72378 10.0572C3.84872 9.93225 4.04835 9.81369 4.57287 9.74318C5.12614 9.66879 5.87171 9.66667 6.99992 9.66667V8.66667ZM2.33325 13.3333H3.33325C3.33325 12.2051 3.33538 11.4596 3.40976 10.9063C3.48028 10.3818 3.59884 10.1821 3.72378 10.0572L3.01667 9.35008L2.30956 8.64298C1.75108 9.20145 1.52793 9.8935 1.4276 10.6398C1.33113 11.3573 1.33325 12.2617 1.33325 13.3333H2.33325ZM24.4999 22.0833H23.4999C23.4999 23.1419 22.6418 24 21.5833 24V25V26C23.7464 26 25.4999 24.2464 25.4999 22.0833H24.4999ZM21.5833 25V24C20.5247 24 19.6666 23.1419 19.6666 22.0833H18.6666H17.6666C17.6666 24.2464 19.4201 26 21.5833 26V25ZM18.6666 22.0833H19.6666C19.6666 21.0248 20.5247 20.1667 21.5833 20.1667V19.1667V18.1667C19.4201 18.1667 17.6666 19.9202 17.6666 22.0833H18.6666ZM21.5833 19.1667V20.1667C22.6418 20.1667 23.4999 21.0248 23.4999 22.0833H24.4999H25.4999C25.4999 19.9202 23.7464 18.1667 21.5833 18.1667V19.1667ZM25.6666 26.1667L26.3737 25.4596L24.0404 23.1262L23.3333 23.8333L22.6261 24.5404L24.9595 26.8738L25.6666 26.1667Z" fill="#0E0E0E"/>
</svg>
