<svg width="28" height="29" viewBox="0 0 28 29" fill="none" xmlns="http://www.w3.org/2000/svg">
<path d="M25.6666 26.1667L19.8333 20.3333M9.91659 10.4167V8.66668C9.91659 7.70018 10.7001 6.91668 11.6666 6.91668H12.8333C13.7998 6.91668 14.5833 7.70018 14.5833 8.66668V10.4167M22.1666 12.75C22.1666 18.2268 17.7267 22.6667 12.2499 22.6667C6.7731 22.6667 2.33325 18.2268 2.33325 12.75C2.33325 7.27319 6.7731 2.83334 12.2499 2.83334C17.7267 2.83334 22.1666 7.27319 22.1666 12.75ZM8.74992 16.8333H15.7499C16.3943 16.8333 16.9166 16.311 16.9166 15.6667V11.5833C16.9166 10.939 16.3943 10.4167 15.7499 10.4167H8.74992C8.10559 10.4167 7.58325 10.939 7.58325 11.5833V15.6667C7.58325 16.311 8.10559 16.8333 8.74992 16.8333Z" stroke="#0E0E0E" stroke-width="2"/>
</svg>
