<svg xmlns="http://www.w3.org/2000/svg" width="24" height="24" viewBox="0 0 24 24" fill="none">
  <path opacity="0.1" d="M16.7227 19.6994H18.224C18.4349 19.7007 18.6439 19.6603 18.8391 19.5805C19.0343 19.5007 19.2118 19.3831 19.3613 19.2344C19.5109 19.0858 19.6296 18.909 19.7106 18.7143C19.7916 18.5197 19.8333 18.3109 19.8333 18.1V10.0931H20.4122C20.8626 10.113 21.3071 9.98455 21.6775 9.72755C22.0479 9.47056 22.3239 9.09917 22.463 8.67032C22.5696 8.28899 22.5443 7.88281 22.3912 7.51767C22.238 7.15253 21.9659 6.84987 21.6191 6.65878L14.0341 1.97829C13.417 1.60007 12.7072 1.3999 11.9834 1.3999C11.2595 1.3999 10.5498 1.60007 9.93258 1.97829L2.34762 6.70785C2.01079 6.8967 1.74559 7.19129 1.59305 7.54605C1.4405 7.9008 1.40912 8.29594 1.50376 8.67032C1.64287 9.09917 1.91879 9.47056 2.28921 9.72755C2.65964 9.98455 3.10413 10.113 3.55454 10.0931H4.03535V18.1C4.03405 18.3096 4.07421 18.5173 4.15352 18.7113C4.23283 18.9053 4.34971 19.0817 4.49745 19.2304C4.64519 19.379 4.82086 19.497 5.01436 19.5775C5.20786 19.658 5.41537 19.6994 5.62495 19.6994H7.07718C7.2905 19.7047 7.50271 19.6672 7.70131 19.5891C7.89991 19.5111 8.0809 19.3941 8.2336 19.2451C8.3863 19.096 8.50763 18.9179 8.59046 18.7213C8.67328 18.5246 8.71591 18.3134 8.71585 18.1V10.0931H9.64802V18.1C9.64673 18.3096 9.68689 18.5173 9.76619 18.7113C9.8455 18.9053 9.96238 19.0817 10.1101 19.2304C10.2579 19.379 10.4335 19.497 10.627 19.5775C10.8205 19.658 11.028 19.6994 11.2376 19.6994H12.7291C12.9387 19.6994 13.1462 19.658 13.3397 19.5775C13.5332 19.497 13.7089 19.379 13.8566 19.2304C14.0043 19.0817 14.1212 18.9053 14.2005 18.7113C14.2798 18.5173 14.32 18.3096 14.3187 18.1V10.0931H15.1331V18.1C15.1331 18.5225 15.3003 18.9278 15.5981 19.2275C15.8959 19.5272 16.3002 19.6968 16.7227 19.6994Z" fill="#424242"/>
  <path d="M18.2804 19.7859H16.7696C16.3444 19.7833 15.9376 19.6126 15.6378 19.311C15.3381 19.0094 15.1699 18.6015 15.1699 18.1763V10.1185H14.3503V18.1763C14.3516 18.3872 14.3112 18.5963 14.2314 18.7916C14.1515 18.9868 14.0339 19.1643 13.8852 19.3139C13.7366 19.4635 13.5598 19.5822 13.365 19.6632C13.1703 19.7442 12.9615 19.7859 12.7506 19.7859H11.2496C11.0387 19.7859 10.8299 19.7442 10.6351 19.6632C10.4404 19.5822 10.2636 19.4635 10.1149 19.3139C9.96624 19.1643 9.84861 18.9868 9.7688 18.7916C9.68899 18.5963 9.64858 18.3872 9.64988 18.1763V10.1185H8.71178V18.1763C8.71184 18.3911 8.66894 18.6037 8.58559 18.8016C8.50224 18.9995 8.38013 19.1787 8.22646 19.3287C8.07279 19.4787 7.89065 19.5964 7.69079 19.6749C7.49092 19.7535 7.27736 19.7912 7.06269 19.7859H5.60122C5.39031 19.7859 5.18147 19.7442 4.98674 19.6632C4.79201 19.5822 4.61522 19.4635 4.46654 19.3139C4.31786 19.1643 4.20024 18.9868 4.12043 18.7916C4.04062 18.5963 4.0002 18.3872 4.0015 18.1763V10.1185H3.51764C3.06436 10.1385 2.61704 10.0093 2.24426 9.75063C1.87147 9.492 1.5938 9.11824 1.4538 8.68667C1.35857 8.3099 1.39015 7.91225 1.54366 7.55524C1.69718 7.19823 1.96407 6.90176 2.30304 6.71171L9.93625 1.95206C10.5574 1.57144 11.2716 1.37 12.0001 1.37C12.7285 1.37 13.4428 1.57144 14.0639 1.95206L21.6971 6.66233C22.0461 6.85463 22.3199 7.15922 22.4741 7.52668C22.6282 7.89414 22.6537 8.30291 22.5464 8.68667C22.4064 9.11824 22.1287 9.492 21.7559 9.75063C21.3831 10.0093 20.9358 10.1385 20.4825 10.1185H19.8999V18.1763C19.8999 18.3885 19.858 18.5987 19.7765 18.7946C19.6949 18.9905 19.5755 19.1684 19.425 19.318C19.2745 19.4676 19.0959 19.5859 18.8994 19.6663C18.703 19.7466 18.4927 19.7872 18.2804 19.7859ZM13.6097 8.63729H15.95C16.0476 8.63596 16.1445 8.65421 16.235 8.69096C16.3254 8.72771 16.4076 8.78221 16.4766 8.85125C16.5457 8.92029 16.6002 9.00246 16.6369 9.09292C16.6737 9.18337 16.6919 9.28027 16.6906 9.3779V18.1763C16.6905 18.2087 16.7027 18.24 16.7246 18.2638C16.7466 18.2876 16.7768 18.3022 16.8091 18.3047H18.3199C18.3364 18.3048 18.3526 18.3014 18.3677 18.2948C18.3828 18.2883 18.3963 18.2787 18.4074 18.2666C18.4186 18.2545 18.4271 18.2403 18.4324 18.2247C18.4378 18.2092 18.4398 18.1927 18.4384 18.1763V9.3779C18.4384 9.18148 18.5165 8.9931 18.6554 8.85421C18.7943 8.71532 18.9826 8.63729 19.1791 8.63729H20.522C20.8973 8.63729 21.1145 8.45955 21.1639 8.2818C21.2133 8.10405 21.1639 8.02505 20.9565 7.91643L13.2838 3.21603C12.8994 2.974 12.4544 2.84558 12.0001 2.84558C11.5458 2.84558 11.1008 2.974 10.7164 3.21603L3.11277 7.91643C2.93502 8.02505 2.8659 8.14355 2.9054 8.2818C2.9449 8.42005 3.17202 8.63729 3.54726 8.63729H4.74211C4.93853 8.63729 5.12691 8.71532 5.2658 8.85421C5.40469 8.9931 5.48272 9.18148 5.48272 9.3779V18.1763C5.48135 18.1927 5.4834 18.2092 5.48874 18.2247C5.49408 18.2403 5.50259 18.2545 5.51373 18.2666C5.52487 18.2787 5.53841 18.2883 5.55347 18.2948C5.56853 18.3014 5.58479 18.3048 5.60122 18.3047H7.06269C7.09673 18.3047 7.12938 18.2912 7.15346 18.2671C7.17753 18.243 7.19106 18.2104 7.19106 18.1763V9.3779C7.18973 9.28027 7.20798 9.18337 7.24473 9.09292C7.28148 9.00246 7.33598 8.92029 7.40502 8.85125C7.47406 8.78221 7.55623 8.72771 7.64668 8.69096C7.73714 8.65421 7.83404 8.63596 7.93167 8.63729H10.351C10.5474 8.63729 10.7358 8.71532 10.8747 8.85421C11.0136 8.9931 11.0916 9.18148 11.0916 9.3779V18.1763C11.0902 18.1927 11.0923 18.2092 11.0976 18.2247C11.103 18.2403 11.1115 18.2545 11.1226 18.2666C11.1338 18.2787 11.1473 18.2883 11.1623 18.2948C11.1774 18.3014 11.1937 18.3048 11.2101 18.3047H12.7111C12.7275 18.3048 12.7438 18.3014 12.7588 18.2948C12.7739 18.2883 12.7874 18.2787 12.7985 18.2666C12.8097 18.2545 12.8182 18.2403 12.8235 18.2247C12.8289 18.2092 12.8309 18.1927 12.8296 18.1763V9.3779C12.8294 9.27723 12.8498 9.17758 12.8895 9.08505C12.9291 8.99252 12.9872 8.90905 13.0603 8.83974C13.1333 8.77042 13.2196 8.71672 13.3141 8.68191C13.4086 8.6471 13.5091 8.63192 13.6097 8.63729ZM21.8749 21.8794C21.8749 21.683 21.7968 21.4946 21.658 21.3557C21.5191 21.2168 21.3307 21.1388 21.1343 21.1388H2.51041C2.31398 21.1388 2.12561 21.2168 1.98672 21.3557C1.84783 21.4946 1.7698 21.683 1.7698 21.8794C1.7698 22.0758 1.84783 22.2642 1.98672 22.4031C2.12561 22.542 2.31398 22.62 2.51041 22.62H21.1244C21.3217 22.62 21.5111 22.5423 21.6516 22.4037C21.7921 22.2651 21.8723 22.0767 21.8749 21.8794Z" fill="#424242"/>
</svg>