<svg width="24" height="24" viewBox="0 0 24 24" fill="none" xmlns="http://www.w3.org/2000/svg">
<path d="M12 11V9.50003M12 16V17.5M14 11H11.75C11.0596 11 10.5 11.5597 10.5 12.25C10.5 12.9404 11.0596 13.5 11.75 13.5H12.25C12.9404 13.5 13.5 14.0597 13.5 14.75C13.5 15.4404 12.9404 16 12.25 16H10M3 22H21C21.5523 22 22 21.5523 22 21V20C22 19.4477 21.5523 19 21 19H3C2.44772 19 2 19.4477 2 20V21C2 21.5523 2.44772 22 3 22ZM3.5 8.00003H7V19H3.5V8.00003ZM17 8.00003H20.5V19H17V8.00003ZM11.6696 2.11565L2.66965 5.26565C2.26856 5.40603 2 5.78457 2 6.20951V7.00003C2 7.55231 2.44772 8.00003 3 8.00003H21C21.5523 8.00003 22 7.55231 22 7.00003V6.20951C22 5.78457 21.7314 5.40603 21.3304 5.26565L12.3304 2.11565C12.1165 2.0408 11.8835 2.0408 11.6696 2.11565Z" stroke="#424242" stroke-width="2" stroke-linejoin="round"/>
</svg>
