<svg width="24" height="24" viewBox="0 0 24 24" fill="none" xmlns="http://www.w3.org/2000/svg">
<path d="M6 5V6H18V5V4H6V5ZM22 9H21V15H22H23V9H22ZM18 19V18H6V19V20H18V19ZM2 15H3V9H2H1V15H2ZM6 19V18C5.02892 18 4.40121 17.9979 3.9387 17.9357C3.50496 17.8774 3.36902 17.7832 3.29289 17.7071L2.58579 18.4142L1.87868 19.1213C2.38834 19.631 3.01669 19.8297 3.67221 19.9179C4.29896 20.0021 5.08546 20 6 20V19ZM2 15H1C1 15.9145 0.997876 16.701 1.08214 17.3278C1.17027 17.9833 1.36902 18.6117 1.87868 19.1213L2.58579 18.4142L3.29289 17.7071C3.21677 17.631 3.12262 17.495 3.06431 17.0613C3.00212 16.5988 3 15.9711 3 15H2ZM22 15H21C21 15.9711 20.9979 16.5988 20.9357 17.0613C20.8774 17.495 20.7832 17.631 20.7071 17.7071L21.4142 18.4142L22.1213 19.1213C22.631 18.6117 22.8297 17.9833 22.9179 17.3278C23.0021 16.701 23 15.9145 23 15H22ZM18 19V20C18.9145 20 19.701 20.0021 20.3278 19.9179C20.9833 19.8297 21.6117 19.631 22.1213 19.1213L21.4142 18.4142L20.7071 17.7071C20.631 17.7832 20.495 17.8774 20.0613 17.9357C19.5988 17.9979 18.9711 18 18 18V19ZM18 5V6C18.9711 6 19.5988 6.00212 20.0613 6.06431C20.495 6.12262 20.631 6.21677 20.7071 6.29289L21.4142 5.58579L22.1213 4.87868C21.6117 4.36902 20.9833 4.17027 20.3278 4.08214C19.701 3.99788 18.9145 4 18 4V5ZM22 9H23C23 8.08546 23.0021 7.29896 22.9179 6.67221C22.8297 6.01669 22.631 5.38834 22.1213 4.87868L21.4142 5.58579L20.7071 6.29289C20.7832 6.36902 20.8774 6.50496 20.9357 6.9387C20.9979 7.40121 21 8.02892 21 9H22ZM6 5V4C5.08546 4 4.29896 3.99788 3.67221 4.08214C3.01669 4.17027 2.38834 4.36902 1.87868 4.87868L2.58579 5.58579L3.29289 6.29289C3.36902 6.21677 3.50496 6.12262 3.9387 6.06431C4.40121 6.00212 5.02892 6 6 6V5ZM2 9H3C3 8.02892 3.00212 7.40121 3.06431 6.9387C3.12262 6.50496 3.21677 6.36902 3.29289 6.29289L2.58579 5.58579L1.87868 4.87868C1.36902 5.38834 1.17027 6.01669 1.08214 6.67221C0.997876 7.29896 1 8.08546 1 9H2ZM2 10V11H22V10V9H2V10ZM5 15V16H8V15V14H5V15Z" fill="#424242"/>
</svg>
