<svg width="15" height="16" viewBox="0 0 15 16" fill="none" xmlns="http://www.w3.org/2000/svg">
<g clip-path="url(#clip0_28_255)">
<path d="M7.5 14.6666C10.9518 14.6666 13.75 11.6819 13.75 7.99998C13.75 4.31808 10.9518 1.33331 7.5 1.33331C4.04822 1.33331 1.25 4.31808 1.25 7.99998C1.25 11.6819 4.04822 14.6666 7.5 14.6666Z" fill="#E3EDFF"/>
<path d="M6.875 9.33331L6.51023 9.67528C6.60475 9.77611 6.7368 9.83331 6.875 9.83331C7.0132 9.83331 7.14525 9.77611 7.23977 9.67528L6.875 9.33331ZM5.625 7.99998L5.26023 8.34195L6.51023 9.67528L6.875 9.33331L7.23977 8.99134L5.98977 7.65801L5.625 7.99998ZM6.875 9.33331L7.23977 9.67528L9.73977 7.00862L9.375 6.66665L9.01023 6.32468L6.51023 8.99134L6.875 9.33331ZM13.75 7.99998H13.25C13.25 11.4366 10.6457 14.1666 7.5 14.1666V14.6666V15.1666C11.2578 15.1666 14.25 11.9271 14.25 7.99998H13.75ZM7.5 14.6666V14.1666C4.35427 14.1666 1.75 11.4366 1.75 7.99998H1.25H0.75C0.75 11.9271 3.74217 15.1666 7.5 15.1666V14.6666ZM1.25 7.99998H1.75C1.75 4.56334 4.35427 1.83331 7.5 1.83331V1.33331V0.833313C3.74217 0.833313 0.75 4.07283 0.75 7.99998H1.25ZM7.5 1.33331V1.83331C10.6457 1.83331 13.25 4.56334 13.25 7.99998H13.75H14.25C14.25 4.07283 11.2578 0.833313 7.5 0.833313V1.33331Z" fill="#296AED"/>
</g>
<defs>
<clipPath id="clip0_28_255">
<rect width="15" height="16" fill="white"/>
</clipPath>
</defs>
</svg>
