<svg xmlns="http://www.w3.org/2000/svg" width="16" height="17" viewBox="0 0 16 17" fill="none">
  <path d="M14 4.5H11.8667C10.7466 4.5 10.1865 4.5 9.75869 4.71799C9.38236 4.90973 9.0764 5.2157 8.88465 5.59202C8.66667 6.01984 8.66667 6.5799 8.66667 7.7V8.5M14 4.5L12 2.5M14 4.5L12 6.5M6.66667 2.5H5.2C4.0799 2.5 3.51984 2.5 3.09202 2.71799C2.71569 2.90973 2.40973 3.21569 2.21799 3.59202C2 4.01984 2 4.57989 2 5.7V11.3C2 12.4201 2 12.9802 2.21799 13.408C2.40973 13.7843 2.71569 14.0903 3.09202 14.282C3.51984 14.5 4.07989 14.5 5.2 14.5H10.8C11.9201 14.5 12.4802 14.5 12.908 14.282C13.2843 14.0903 13.5903 13.7843 13.782 13.408C14 12.9802 14 12.4201 14 11.3V9.83333" stroke="#6B737D" stroke-linecap="round" stroke-linejoin="round"/>
</svg>