<svg xmlns="http://www.w3.org/2000/svg" width="24" height="25" viewBox="0 0 24 25" fill="none">
  <path d="M13 3.50001H19.5858L3.00001 20.0858V13.5H1.00001L1.00001 20.5544C0.999924 20.9785 0.999843 21.3906 1.04554 21.7305C1.09706 22.1137 1.22259 22.551 1.5858 22.9142C1.94902 23.2774 2.38629 23.4029 2.7695 23.4545C3.10941 23.5002 3.52154 23.5001 3.94561 23.5L11 23.5V21.5H4.41427L21 4.91424V11.5H23L23 4.4456C23.0001 4.02156 23.0002 3.60939 22.9545 3.26949C22.903 2.88629 22.7774 2.44902 22.4142 2.0858C22.051 1.72259 21.6137 1.59706 21.2305 1.54554C20.8906 1.49984 20.4785 1.49992 20.0544 1.50001L13 1.50001V3.50001Z" fill="#565D66"/>
</svg>